<?xml version="1.0" encoding="UTF-8"?>
<!DOCTYPE svg PUBLIC "-//W3C//DTD SVG 1.1//EN" "http://www.w3.org/Graphics/SVG/1.1/DTD/svg11.dtd">
<svg xmlns="http://www.w3.org/2000/svg" version="1.1" width="512px" height="512px" style="shape-rendering:geometricPrecision; text-rendering:geometricPrecision; image-rendering:optimizeQuality; fill-rule:evenodd; clip-rule:evenodd" xmlns:xlink="http://www.w3.org/1999/xlink">
<g><path style="opacity:0.971" fill="#050315" d="M 233.5,-0.5 C 248.167,-0.5 262.833,-0.5 277.5,-0.5C 377.766,12.0408 449.266,64.0408 492,155.5C 502.296,180.684 508.796,206.684 511.5,233.5C 511.5,248.167 511.5,262.833 511.5,277.5C 498.959,377.766 446.959,449.266 355.5,492C 330.316,502.296 304.316,508.796 277.5,511.5C 262.833,511.5 248.167,511.5 233.5,511.5C 133.234,498.959 61.734,446.959 19,355.5C 8.70393,330.316 2.20393,304.316 -0.5,277.5C -0.5,262.833 -0.5,248.167 -0.5,233.5C 12.0408,133.234 64.0408,61.734 155.5,19C 180.684,8.70393 206.684,2.20393 233.5,-0.5 Z M 243.5,39.5 C 331.713,38.6742 398.546,75.6742 444,150.5C 481.775,223.566 480.441,295.9 440,367.5C 388.696,444.229 316.863,478.062 224.5,469C 155.179,456.947 102.679,420.78 67,360.5C 29.2252,287.434 30.5586,215.1 71,143.5C 111.454,80.8446 168.954,46.1779 243.5,39.5 Z"/></g>
<g><path style="opacity:0.976" fill="#050315" d="M 253.5,117.5 C 264.305,117.472 271.472,122.472 275,132.5C 275.333,170.5 275.667,208.5 276,246.5C 300.667,265.167 325.333,283.833 350,302.5C 356.771,311.256 357.105,320.256 351,329.5C 342.367,337.346 332.867,338.513 322.5,333C 296.167,313.333 269.833,293.667 243.5,274C 240.567,271.736 238.4,268.902 237,265.5C 235.349,221.226 235.016,176.892 236,132.5C 238.654,123.672 244.488,118.672 253.5,117.5 Z"/></g>
</svg>
