<?xml version="1.0" encoding="UTF-8"?>
<!DOCTYPE svg PUBLIC "-//W3C//DTD SVG 1.1//EN" "http://www.w3.org/Graphics/SVG/1.1/DTD/svg11.dtd">
<svg xmlns="http://www.w3.org/2000/svg" version="1.1" width="512px" height="512px" style="shape-rendering:geometricPrecision; text-rendering:geometricPrecision; image-rendering:optimizeQuality; fill-rule:evenodd; clip-rule:evenodd" xmlns:xlink="http://www.w3.org/1999/xlink">
<g><path style="opacity:0.95" fill="#050315" d="M 511.5,120.5 C 511.5,176.5 511.5,232.5 511.5,288.5C 500.901,340.264 469.568,371.098 417.5,381C 355.833,381.333 294.167,381.667 232.5,382C 179.332,414.75 126.332,447.75 73.5,481C 60.9879,488.005 55.1546,484.505 56,470.5C 63.4502,439.865 71.2835,409.365 79.5,379C 34.8771,364.519 8.21039,334.352 -0.5,288.5C -0.5,232.5 -0.5,176.5 -0.5,120.5C 9.89405,67.2739 41.8941,36.1072 95.5,27C 202.167,26.3333 308.833,26.3333 415.5,27C 469.106,36.1072 501.106,67.2739 511.5,120.5 Z M 79.5,454.5 C 85.8374,428.15 92.3374,401.817 99,375.5C 100.655,370.063 99.1549,365.897 94.5,363C 51.1038,353.699 25.6038,327.199 18,283.5C 17.3333,230.5 17.3333,177.5 18,124.5C 24.9708,84.1935 48.1374,58.3601 87.5,47C 92.1232,46.0418 96.7899,45.3751 101.5,45C 204.167,44.3333 306.833,44.3333 409.5,45C 447.087,49.263 473.254,68.763 488,103.5C 490.43,110.316 492.097,117.316 493,124.5C 493.667,177.5 493.667,230.5 493,283.5C 486.099,323.402 463.266,349.235 424.5,361C 420.531,361.853 416.531,362.519 412.5,363C 350.5,363.333 288.5,363.667 226.5,364C 177.597,394.419 128.597,424.585 79.5,454.5 Z"/></g>
<g><path style="opacity:0.927" fill="#050315" d="M 124.5,145.5 C 139.13,144.445 153.463,145.945 167.5,150C 173.747,154.514 174.08,159.514 168.5,165C 166.167,165.667 163.833,165.667 161.5,165C 147.452,160.424 133.452,160.424 119.5,165C 111.151,171.395 110.484,178.395 117.5,186C 121.271,188.219 125.271,189.885 129.5,191C 142.057,193.408 154.057,197.408 165.5,203C 177.181,213.553 179.681,226.053 173,240.5C 166.875,248.817 158.709,253.983 148.5,256C 131.669,258.283 115.335,256.283 99.5,250C 94.9315,247.459 93.4315,243.625 95,238.5C 95.5,236.667 96.6667,235.5 98.5,235C 101.167,234.333 103.833,234.333 106.5,235C 121.969,241.357 137.636,242.024 153.5,237C 161.005,230.517 161.339,223.85 154.5,217C 139.845,212.002 125.178,207.002 110.5,202C 98.563,195.29 93.7297,185.124 96,171.5C 100.293,157.037 109.793,148.371 124.5,145.5 Z"/></g>
<g><path style="opacity:0.923" fill="#050315" d="M 203.5,145.5 C 207.936,145.21 212.27,145.71 216.5,147C 219,148.167 220.833,150 222,152.5C 232.804,179.913 243.804,207.247 255,234.5C 266.333,206.5 277.667,178.5 289,150.5C 295.576,144.959 302.742,144.125 310.5,148C 313.181,150.194 314.681,153.027 315,156.5C 315.97,188.548 315.637,220.548 314,252.5C 309,257.833 304,257.833 299,252.5C 298.667,251.167 298.333,249.833 298,248.5C 297.667,223.167 297.333,197.833 297,172.5C 287.196,197.58 277.196,222.58 267,247.5C 263.157,255.67 256.991,258.17 248.5,255C 247.333,253.833 246.167,252.667 245,251.5C 234.425,225.355 223.592,199.355 212.5,173.5C 211.667,199.494 211.167,225.494 211,251.5C 207.911,256.305 203.744,257.472 198.5,255C 196.951,253.786 195.785,252.286 195,250.5C 194.333,218.5 194.333,186.5 195,154.5C 196.688,150.315 199.521,147.315 203.5,145.5 Z"/></g>
<g><path style="opacity:0.927" fill="#050315" d="M 364.5,145.5 C 379.935,144.167 394.935,146 409.5,151C 413.603,155.943 413.269,160.609 408.5,165C 402.026,165.135 395.693,164.135 389.5,162C 381.103,161.13 372.77,161.463 364.5,163C 355.763,165.648 351.929,171.481 353,180.5C 357.052,186.119 362.552,189.619 369.5,191C 381.311,193.27 392.644,196.937 403.5,202C 416.225,211.385 419.725,223.552 414,238.5C 408.233,248.147 399.733,253.98 388.5,256C 371.665,258.314 355.332,256.314 339.5,250C 334.931,247.459 333.431,243.625 335,238.5C 335.465,237.069 336.299,235.903 337.5,235C 340.5,234.333 343.5,234.333 346.5,235C 361.962,241.403 377.629,242.07 393.5,237C 400.998,230.563 401.332,223.896 394.5,217C 379.068,211.975 363.735,206.641 348.5,201C 334.914,190.874 331.748,178.041 339,162.5C 345.275,153.374 353.775,147.707 364.5,145.5 Z"/></g>
</svg>
