<?xml version="1.0" standalone="no"?>
<!DOCTYPE svg PUBLIC "-//W3C//DTD SVG 20010904//EN"
 "http://www.w3.org/TR/2001/REC-SVG-20010904/DTD/svg10.dtd">
<svg version="1.0" xmlns="http://www.w3.org/2000/svg"
 width="512.000000pt" height="512.000000pt" viewBox="0 0 512.000000 512.000000"
 preserveAspectRatio="xMidYMid meet">

<g transform="translate(0.000000,512.000000) scale(0.100000,-0.100000)"
fill="#000000" stroke="none">
<path d="M2193 4449 c-20 -23 -67 -245 -248 -1181 l-22 -118 477 0 478 0 7 28
c27 110 158 183 269 152 169 -47 215 -261 81 -378 -20 -18 -42 -32 -50 -32
-13 0 -15 -67 -15 -500 0 -275 3 -500 8 -500 4 -1 195 -38 425 -84 229 -45
417 -82 417 -82 1 1 99 501 219 1111 176 895 216 1115 208 1138 -5 17 -22 34
-41 42 -32 15 -2054 413 -2141 422 -43 4 -53 2 -72 -18z m511 -430 c50 -14
118 -82 134 -135 28 -93 4 -175 -68 -236 -123 -106 -312 -45 -350 113 -40 168
112 306 284 258z m1152 -254 c123 -36 187 -177 133 -295 -27 -60 -45 -79 -104
-106 -168 -79 -352 70 -305 246 20 77 69 128 148 156 48 17 68 17 128 -1z
m-167 -1168 c123 -82 135 -249 25 -346 -144 -126 -357 -28 -359 164 0 48 6 69
27 106 45 77 106 109 199 106 53 -2 75 -8 108 -30z"/>
<path d="M715 2970 c-53 -21 -50 40 -53 -1129 -2 -597 0 -1101 3 -1119 3 -18
15 -42 26 -53 19 -19 43 -19 1137 -19 l1119 0 21 23 22 23 0 1142 0 1142
-1127 -1 c-621 0 -1137 -4 -1148 -9z m629 -384 c25 -15 59 -46 74 -68 24 -36
27 -51 27 -119 0 -70 -3 -82 -30 -121 -35 -50 -120 -98 -173 -98 -126 0 -226
98 -226 220 2 170 181 272 328 186z m592 -591 c62 -36 97 -92 102 -165 6 -76
-11 -124 -62 -174 -81 -82 -208 -88 -292 -14 -128 113 -91 314 68 375 49 19
131 9 184 -22z m602 -601 c64 -38 96 -92 100 -174 3 -53 0 -75 -16 -106 -108
-210 -411 -139 -412 97 0 71 31 133 87 173 74 52 162 55 241 10z"/>
</g>
</svg>
