<?xml version="1.0" standalone="no"?>
<!DOCTYPE svg PUBLIC "-//W3C//DTD SVG 20010904//EN"
 "http://www.w3.org/TR/2001/REC-SVG-20010904/DTD/svg10.dtd">
<svg version="1.0" xmlns="http://www.w3.org/2000/svg"
 width="512.000000pt" height="512.000000pt" viewBox="0 0 512.000000 512.000000"
 preserveAspectRatio="xMidYMid meet">

<g transform="translate(0.000000,512.000000) scale(0.100000,-0.100000)"
fill="#000000" stroke="none">
<path d="M1120 5020 c-28 -28 -32 -55 -28 -175 3 -103 4 -108 31 -131 37 -32
62 -30 98 5 29 29 29 30 29 151 0 115 -1 122 -25 145 -30 31 -77 33 -105 5z"/>
<path d="M1579 5013 l-22 -28 6 -395 6 -395 26 -22 c34 -30 70 -29 101 2 l26
26 -4 394 -3 393 -24 26 c-34 36 -82 35 -112 -1z"/>
<path d="M2972 5017 c-19 -20 -22 -35 -22 -114 0 -76 3 -94 21 -117 28 -36 86
-36 119 -1 22 23 23 29 17 117 -6 83 -9 95 -32 116 -34 29 -76 28 -103 -1z"/>
<path d="M3443 5014 l-25 -25 7 -392 c7 -377 8 -393 28 -414 28 -31 77 -30
106 1 l22 23 -3 397 -3 398 -24 19 c-33 27 -77 24 -108 -7z"/>
<path d="M3921 5021 c-28 -28 -33 -68 -29 -223 3 -117 6 -139 22 -157 29 -32
88 -29 115 5 19 24 21 40 21 184 0 144 -2 160 -21 184 -25 32 -79 36 -108 7z"/>
<path d="M2040 5010 c-19 -19 -20 -33 -20 -209 l0 -190 26 -20 c35 -28 69 -26
99 4 25 24 25 26 25 210 0 172 -1 186 -20 205 -12 12 -33 20 -55 20 -22 0 -43
-8 -55 -20z"/>
<path d="M2501 5004 c-21 -27 -21 -32 -15 -413 7 -417 8 -424 61 -437 33 -9
74 13 88 46 7 16 9 160 5 408 l-5 384 -24 19 c-35 28 -85 25 -110 -7z"/>
<path d="M1140 4607 c-45 -23 -51 -48 -48 -235 l3 -174 28 -24 c34 -29 67 -31
98 -5 23 19 24 24 27 204 3 181 3 185 -20 210 -29 32 -56 40 -88 24z"/>
<path d="M3013 4612 c-47 -7 -53 -32 -53 -233 l0 -188 26 -20 c35 -28 69 -26
99 4 25 24 25 26 25 203 0 163 -2 182 -20 204 -21 28 -42 36 -77 30z"/>
<path d="M2040 4490 c-18 -18 -20 -33 -20 -155 0 -131 1 -137 25 -160 13 -14
36 -25 50 -25 14 0 37 11 50 25 24 23 25 29 25 160 0 122 -2 137 -20 155 -12
12 -33 20 -55 20 -22 0 -43 -8 -55 -20z"/>
<path d="M3914 4489 c-15 -17 -20 -40 -22 -121 -5 -118 2 -162 29 -189 27 -27
74 -24 104 6 24 23 25 30 25 148 0 111 -2 127 -21 151 -27 34 -86 37 -115 5z"/>
<path d="M1725 3990 l-810 -5 -45 -25 c-101 -57 -138 -181 -88 -292 25 -54 60
-88 112 -108 25 -9 26 -13 26 -87 0 -100 22 -200 57 -266 15 -29 61 -85 102
-124 l74 -72 -29 -11 c-136 -50 -250 -151 -307 -271 -78 -162 -75 -330 8 -488
62 -118 183 -220 314 -263 64 -21 84 -22 586 -26 382 -3 522 -7 527 -15 4 -7
8 -219 8 -473 l0 -461 23 -20 c12 -11 30 -23 40 -26 20 -8 491 195 522 224 19
19 20 36 25 412 l5 392 33 68 c37 76 -16 27 772 709 206 179 395 346 418 372
24 26 58 77 75 114 28 60 31 78 35 185 4 115 5 118 31 131 134 70 163 271 55
380 -59 58 -21 56 -926 54 -458 -2 -1197 -5 -1643 -8z m2459 -156 c21 -20 21
-88 0 -105 -13 -11 -304 -15 -1618 -21 -1074 -6 -1608 -5 -1623 1 -19 9 -23
19 -23 55 0 26 6 48 15 56 12 10 304 14 1333 20 724 3 1448 7 1609 8 253 2
294 0 307 -14z m-1302 -484 c32 -32 32 -35 13 -126 -7 -31 -7 -31 40 -36 54
-7 72 -21 81 -64 4 -24 0 -37 -19 -60 -22 -25 -34 -30 -92 -34 l-67 -5 -19
-60 c-10 -33 -19 -61 -19 -62 0 -2 28 -3 62 -3 108 0 169 -46 152 -114 -11
-46 -38 -56 -155 -56 l-106 0 -21 -73 c-23 -78 -40 -100 -85 -111 -21 -5 -33
-1 -52 18 -29 29 -32 64 -10 125 l14 42 -70 -3 -71 -3 -23 -79 c-25 -88 -41
-106 -95 -106 -64 0 -87 46 -66 126 l14 52 -45 5 c-58 6 -83 30 -83 78 0 55
34 79 115 79 l62 0 16 60 c10 33 17 62 17 65 0 3 -35 5 -79 5 -64 0 -83 4
-105 21 -32 25 -35 75 -7 110 17 21 29 24 131 29 l113 5 19 70 c28 104 88 145
138 95 28 -28 33 -59 16 -113 l-14 -48 71 3 72 3 18 70 c20 72 38 101 72 116
31 12 34 11 67 -21z m-1138 -830 c233 -201 427 -371 430 -378 5 -10 -88 -12
-487 -10 l-492 3 -54 28 c-232 123 -288 408 -117 604 57 65 206 128 283 119 7
0 204 -165 437 -366z"/>
<path d="M2547 3023 c-6 -10 -37 -114 -37 -125 0 -4 29 -8 64 -8 l65 0 15 54
c25 85 25 86 -43 86 -33 0 -62 -3 -64 -7z"/>
<path d="M1160 1170 c-19 -19 -20 -33 -20 -200 0 -167 1 -181 20 -200 30 -30
83 -30 115 1 19 18 20 33 20 198 0 162 -2 181 -19 200 -26 28 -88 29 -116 1z"/>
<path d="M1571 1169 c-79 -40 -129 -138 -117 -228 30 -216 320 -266 419 -72
36 73 36 131 -1 202 -42 80 -94 113 -185 117 -59 2 -80 -1 -116 -19z m147
-145 c31 -21 31 -87 0 -108 -48 -34 -108 -4 -108 54 0 58 60 88 108 54z"/>
<path d="M3190 1170 c-19 -19 -20 -33 -20 -203 0 -168 2 -185 19 -201 30 -28
80 -24 108 8 22 26 23 34 23 195 0 155 -2 170 -21 195 -26 33 -79 36 -109 6z"/>
<path d="M3656 1106 c-88 -33 -144 -101 -153 -188 -14 -136 80 -237 221 -238
80 0 136 28 175 87 52 79 53 175 1 256 -47 75 -161 113 -244 83z m112 -162
c50 -35 4 -134 -56 -119 -38 9 -55 29 -55 64 0 61 60 91 111 55z"/>
<path d="M2425 651 c-171 -79 -166 -333 7 -405 52 -22 140 -20 186 3 137 71
168 242 63 354 -61 67 -171 87 -256 48z m142 -153 c13 -12 23 -33 23 -47 0
-32 -37 -71 -67 -71 -30 0 -73 42 -73 70 0 28 43 70 71 70 13 0 33 -10 46 -22z"/>
<path d="M1038 588 c-21 -5 -57 -27 -82 -49 -147 -130 -70 -373 124 -387 70
-5 120 10 166 51 133 116 89 332 -77 381 -59 18 -77 18 -131 4z m109 -160 c13
-12 23 -33 23 -47 0 -32 -37 -71 -67 -71 -30 0 -73 42 -73 70 0 28 43 70 71
70 13 0 33 -10 46 -22z"/>
<path d="M1533 576 l-28 -24 0 -175 c0 -158 2 -177 19 -196 26 -28 88 -29 116
-1 18 18 20 33 20 189 0 93 -3 177 -6 186 -7 17 -54 45 -78 45 -8 0 -28 -11
-43 -24z"/>
<path d="M2944 579 c-17 -19 -19 -38 -19 -199 0 -161 2 -180 19 -199 26 -28
88 -29 116 -1 18 18 20 33 20 194 0 160 -2 175 -21 200 -27 34 -86 37 -115 5z"/>
<path d="M3534 519 c-38 -19 -44 -52 -44 -223 0 -150 2 -165 21 -190 38 -49
118 -27 134 37 4 13 5 94 3 180 -3 141 -5 158 -23 176 -25 25 -64 33 -91 20z"/>
<path d="M3979 515 c-53 -17 -115 -73 -136 -124 -22 -51 -19 -140 5 -187 39
-77 104 -114 197 -114 69 0 120 25 168 80 140 164 -27 411 -234 345z m120
-187 c35 -61 -31 -123 -87 -81 -33 24 -39 56 -17 89 23 35 83 31 104 -8z"/>
</g>
</svg>
