<?xml version="1.0" encoding="UTF-8"?>
<svg id="Layer_1" data-name="Layer 1" xmlns="http://www.w3.org/2000/svg" viewBox="0 0 2048 2048">
  <defs>
    <style>
      .cls-1 {
        stroke: #2e3192;
      }

      .cls-1, .cls-2, .cls-3, .cls-4 {
        stroke-miterlimit: 10;
      }

      .cls-1, .cls-4 {
        fill: none;
        stroke-width: 25px;
      }

      .cls-2 {
        fill: #f1f2f2;
      }

      .cls-2, .cls-3 {
        stroke: #231f20;
        stroke-width: 10px;
      }

      .cls-3 {
        fill: #2e3192;
      }

      .cls-4 {
        stroke: #fbb040;
      }
    </style>
  </defs>
  <path class="cls-2" d="m1024,268.5c-115.9,0-209.86,225.5-209.86,503.67s93.96,503.67,209.86,503.67,209.86-225.5,209.86-503.67-93.96-503.67-209.86-503.67Zm0,839.45c-57.95,0-104.93-150.33-104.93-335.78s46.98-335.78,104.93-335.78,104.93,150.33,104.93,335.78-46.98,335.78-104.93,335.78Z"/>
  <g>
    <path class="cls-3" d="m.28,1556.43l1020.25-502.31-276.83-730.44S-16.78,1530.36.28,1556.43Z"/>
    <path class="cls-3" d="m1304.29,323.68l-276.83,730.44,1020.25,502.31c17.07-26.07-743.43-1232.75-743.43-1232.75Z"/>
  </g>
  <circle class="cls-2" cx="1024" cy="1275.83" r="503.67"/>
  <line class="cls-1" x1="1024" y1="1275.83" x2="1024" y2="940.06"/>
  <line class="cls-4" x1="1024" y1="1270.47" x2="1024" y2="1438.36"/>
</svg>